<?xml version="1.0" encoding="utf-8"?>
<!-- Generator: Adobe Illustrator 24.3.0, SVG Export Plug-In . SVG Version: 6.00 Build 0)  -->
<svg version="1.1" id="Layer_1" xmlns="http://www.w3.org/2000/svg" xmlns:xlink="http://www.w3.org/1999/xlink" x="0px" y="0px"
	 viewBox="0 0 1024 1024" style="enable-background:new 0 0 1024 1024;" xml:space="preserve">
<style type="text/css">
	.st0{fill:none;}
	.st1{fill:url(#SVGID_1_);}
	.st2{fill:url(#SVGID_2_);}
	.st3{fill:url(#SVGID_3_);}
	.st4{fill:url(#SVGID_4_);}
	.st5{fill:url(#SVGID_5_);}
	.st6{fill:url(#SVGID_6_);}
	.st7{fill:#3199D7;}
</style>
<path class="st0" d="M117.68,474.36c-1.11-1.96-2.7-3.47-4.42-4.61C114.77,470.89,116.25,472.4,117.68,474.36z"/>
<linearGradient id="SVGID_1_" gradientUnits="userSpaceOnUse" x1="117.4379" y1="474.3564" x2="117.9262" y2="474.3564">
	<stop  offset="0" style="stop-color:#FFFFFF"/>
	<stop  offset="1" style="stop-color:#000000"/>
</linearGradient>
<polygon class="st1" points="117.68,474.36 117.68,474.36 117.68,474.36 "/>
<linearGradient id="SVGID_2_" gradientUnits="userSpaceOnUse" x1="117.4379" y1="474.3564" x2="117.9262" y2="474.3564">
	<stop  offset="0" style="stop-color:#FFFFFF"/>
	<stop  offset="1" style="stop-color:#000000"/>
</linearGradient>
<polygon class="st2" points="117.68,474.36 117.68,474.36 117.68,474.36 "/>
<g>
	<linearGradient id="SVGID_3_" gradientUnits="userSpaceOnUse" x1="613.0644" y1="297.5614" x2="989.7192" y2="297.5614">
		<stop  offset="0" style="stop-color:#7D77B6"/>
		<stop  offset="0.7989" style="stop-color:#10A8E8"/>
	</linearGradient>
	<path class="st3" d="M613.07,355.37c0,0-2.15-138.59,115.38-189.6c48.87-21.21,104.88-20.23,153.61,1.31
		c38.34,16.94,81.31,48.39,99.87,106.4c8.57,26.78,9.69,55.33,5.26,83.09c-4.33,27.14-14.02,63.57-35.74,88.18
		c0,0-52.73-44.37-120.88-39.87c0,0,57.23-28.93,52.08-77.8c-4.57-43.4-27.02-66.51-65.48-73.84c-13.94-2.66-28.52-1.89-41.5,3.84
		c-41.8,18.46-72.52,76.11-66.63,109.87L613.07,355.37z"/>
	<linearGradient id="SVGID_4_" gradientUnits="userSpaceOnUse" x1="9.984" y1="612.0115" x2="1014.016" y2="612.0115">
		<stop  offset="0.2011" style="stop-color:#7D77B6"/>
		<stop  offset="0.7989" style="stop-color:#10A8E8"/>
	</linearGradient>
	<path class="st4" d="M829.59,417.1c-114.77,6.75-188.07,110.92-188.07,110.92l72.98,64.3c10.67-14.88,22.6-26.66,34.63-35.99
		l-0.05,0c0,0,31.42-29.19,70.7-32.25c1.95-0.1,4.89-0.2,8.23-0.15c0.01,0,0.02,0,0.03,0c1.98,0.03,4.09,0.12,6.21,0.29
		c0.96,0.1,1.91,0.16,2.87,0.3c0.03,0,0.06,0.01,0.09,0.01c1.78,0.25,3.56,0.55,5.35,0.93c0,0,0,0,0,0
		c10.8,2.28,21.84,7.06,32.7,15.33c9.47,6.28,18.27,14.59,24.37,25.42l0,0c5.46,9.68,8.77,21.36,8.4,35.43
		c-1.61,60.76-57.55,79.09-71.05,79.73s-46.78-5.95-68.8-25.08C722.54,628,575.93,498.11,575.93,498.11
		C397.5,339.94,273.09,350.55,273.09,350.55c-114.63,6.59-180.26,58.78-217.75,113.67c-58.07,85.03-60.34,197.32-7,285.39
		c33.91,55.98,93.14,107.11,194.35,121.54c20.49,2.92,41.32,3.19,61.91,1.18C508.85,852.41,625.12,696.8,625.12,696.8l-76.19-64.62
		c-91.97,90.7-180.19,119.67-229.81,128.87c-25.13,4.66-50.92,4.23-75.94-0.99C119.79,734.3,114.64,646.81,111.54,615.3
		c-3.86-41.47,24.11-154.8,165.41-157.69c128.28,0.96,267.16,137.92,267.16,137.92s148.21,134.06,196.43,168.14
		c7.99,5.65,15.73,10.1,23.15,13.73c14.28,6.59,39.71,15.16,72.39,13.13c100.01-10.89,144.9-73.94,164.89-123.72
		c19.26-47.96,17.52-102.28-7.25-147.64C966.08,468.6,912.81,421.34,829.59,417.1z"/>
</g>
<g>
	<g>
		<linearGradient id="SVGID_5_" gradientUnits="userSpaceOnUse" x1="2011.3776" y1="367.7616" x2="2129.5688" y2="367.7616">
			<stop  offset="0" style="stop-color:#7D77B6"/>
			<stop  offset="0.7989" style="stop-color:#10A8E8"/>
		</linearGradient>
		<path class="st5" d="M2011.38,385.9c0,0-0.68-43.49,36.2-59.5c15.34-6.66,32.91-6.35,48.2,0.41
			c12.03,5.32,25.51,15.18,31.34,33.39c2.69,8.4,3.04,17.36,1.65,26.07c-1.36,8.52-4.4,19.95-11.21,27.67
			c0,0-16.54-13.92-37.93-12.51c0,0,17.96-9.08,16.34-24.41c-1.43-13.62-8.48-20.87-20.55-23.17c-4.37-0.83-8.95-0.59-13.02,1.21
			c-13.12,5.79-22.76,23.88-20.91,34.48L2011.38,385.9z"/>
		<linearGradient id="SVGID_6_" gradientUnits="userSpaceOnUse" x1="1822.1356" y1="466.4336" x2="2137.1929" y2="466.4336">
			<stop  offset="0.2011" style="stop-color:#7D77B6"/>
			<stop  offset="0.7989" style="stop-color:#10A8E8"/>
		</linearGradient>
		<path class="st6" d="M2079.32,405.27c-36.02,2.12-59.02,34.8-59.02,34.8l22.9,20.18c3.35-4.67,7.09-8.36,10.87-11.29l-0.02,0
			c0,0,9.86-9.16,22.18-10.12c0.61-0.03,1.53-0.06,2.58-0.05c0,0,0.01,0,0.01,0c0.62,0.01,1.28,0.04,1.95,0.09
			c0.3,0.03,0.6,0.05,0.9,0.09c0.01,0,0.02,0,0.03,0c0.56,0.08,1.12,0.17,1.68,0.29c0,0,0,0,0,0c3.39,0.72,6.85,2.22,10.26,4.81
			c2.97,1.97,5.73,4.58,7.65,7.98l0,0c1.71,3.04,2.75,6.7,2.64,11.12c-0.5,19.07-18.06,24.82-22.29,25.02s-14.68-1.87-21.59-7.87
			c-14.33-8.88-60.33-49.63-60.33-49.63c-55.99-49.63-95.03-46.31-95.03-46.31c-35.97,2.07-56.56,18.44-68.33,35.67
			c-18.22,26.68-18.94,61.92-2.2,89.55c10.64,17.57,29.23,33.61,60.99,38.14c6.43,0.92,12.96,1,19.43,0.37
			c64.09-6.25,100.58-55.08,100.58-55.08l-23.91-20.28c-28.86,28.46-56.54,37.55-72.11,40.44c-7.89,1.46-15.98,1.33-23.83-0.31
			c-38.72-8.08-40.33-35.53-41.31-45.42c-1.21-13.01,7.57-48.57,51.9-49.48c40.25,0.3,83.83,43.28,83.83,43.28
			s46.51,42.07,61.64,52.76c2.51,1.77,4.94,3.17,7.26,4.31c4.48,2.07,12.46,4.76,22.71,4.12c31.38-3.42,45.47-23.2,51.74-38.82
			c6.04-15.05,5.5-32.1-2.27-46.33C2122.15,421.43,2105.44,406.6,2079.32,405.27z"/>
	</g>
	<g>
		<path class="st7" d="M1149.65,682.52c-13-13.27-19.51-29.43-19.51-48.47c0-19.05,6.5-35.27,19.51-48.67
			c13-13.39,28.84-20.09,47.5-20.09c18.67,0,34.53,6.7,47.6,20.09c13.07,13.4,19.6,29.62,19.6,48.67c0,19.05-6.53,35.21-19.6,48.47
			c-13.07,13.27-28.93,19.9-47.6,19.9C1178.49,702.42,1162.65,695.79,1149.65,682.52z M1159.07,595
			c-10.58,10.92-15.87,23.94-15.87,39.05c0,15.11,5.29,28.06,15.87,38.85c10.58,10.8,23.27,16.19,38.08,16.19
			c14.81,0,27.53-5.4,38.17-16.19c10.64-10.79,15.96-23.74,15.96-38.85c0-15.11-5.32-28.12-15.96-39.05
			c-10.64-10.92-23.36-16.38-38.17-16.38C1182.34,578.62,1169.65,584.08,1159.07,595z"/>
		<path class="st7" d="M1282.83,695.95l24.08-127.99c0.37-1.78,1.49-2.67,3.36-2.67h2.99c1.62,0,2.67,0.7,3.17,2.1l36.96,104.95
			h0.93l36.4-104.95c0.5-1.4,1.55-2.1,3.17-2.1h2.99c1.87,0,2.99,0.89,3.36,2.67l24.08,127.99c0.62,3.05-0.5,4.57-3.36,4.57h-7.47
			c-1.74,0-2.86-0.89-3.36-2.67l-16.61-98.09h-0.75l-34.34,100.57c-0.5,1.4-1.56,2.1-3.17,2.1h-3.36c-1.62,0-2.68-0.7-3.17-2.1
			L1314,599.76h-0.75l-16.24,98.09c-0.13,0.64-0.53,1.24-1.21,1.81c-0.68,0.57-1.4,0.86-2.15,0.86h-7.47
			C1283.32,700.52,1282.2,699,1282.83,695.95z"/>
		<path class="st7" d="M1451.94,696.9V570.81c0-1.01,0.34-1.87,1.03-2.57c0.68-0.7,1.52-1.05,2.52-1.05h73.54
			c0.99,0,1.83,0.35,2.52,1.05c0.68,0.7,1.03,1.56,1.03,2.57v5.52c0,1.02-0.34,1.88-1.03,2.57c-0.69,0.7-1.53,1.05-2.52,1.05h-62.72
			v52.19h53.57c0.99,0,1.83,0.35,2.52,1.05c0.68,0.7,1.03,1.56,1.03,2.57v5.52c0,0.89-0.34,1.71-1.03,2.48
			c-0.69,0.76-1.53,1.14-2.52,1.14h-53.57v52c0,0.89-0.34,1.71-1.03,2.48c-0.69,0.76-1.53,1.14-2.52,1.14h-7.28
			c-1,0-1.84-0.35-2.52-1.05C1452.28,698.78,1451.94,697.92,1451.94,696.9z"/>
		<path class="st7" d="M1559.26,589.86c-2.74,0-5.1-1.01-7.09-3.05c-1.99-2.03-2.99-4.44-2.99-7.24c0-3.05,0.96-5.59,2.89-7.62
			c1.93-2.03,4.32-3.05,7.19-3.05c2.86,0,5.29,1.02,7.28,3.05c1.99,2.03,2.99,4.57,2.99,7.62c0,2.79-1,5.21-2.99,7.24
			C1564.55,588.84,1562.13,589.86,1559.26,589.86z M1552.73,696.33v-79.61c0-1.01,0.4-1.97,1.21-2.86c0.81-0.89,1.77-1.33,2.89-1.33
			h5.6c1,0,1.93,0.45,2.8,1.33c0.87,0.89,1.31,1.84,1.31,2.86v79.61c0,1.14-0.44,2.13-1.31,2.95c-0.87,0.83-1.8,1.24-2.8,1.24h-5.6
			c-1.12,0-2.09-0.41-2.89-1.24C1553.13,698.46,1552.73,697.47,1552.73,696.33z"/>
		<path class="st7" d="M1597.72,696.9V568.72c0-0.89,0.34-1.68,1.03-2.38c0.68-0.7,1.52-1.05,2.52-1.05h2.8
			c1.37,0,2.36,0.51,2.99,1.52l83.06,105.52h0.38V570.81c0-1.01,0.34-1.87,1.02-2.57c0.68-0.7,1.52-1.05,2.52-1.05h6.53
			c0.87,0,1.68,0.38,2.43,1.14c0.75,0.76,1.12,1.59,1.12,2.48V699c0,0.89-0.34,1.68-1.02,2.38c-0.69,0.7-1.53,1.05-2.52,1.05h-1.49
			c-1.37,0-2.36-0.51-2.99-1.52l-84.56-107.61h-0.19V696.9c0,1.02-0.34,1.88-1.03,2.57c-0.68,0.7-1.53,1.05-2.52,1.05h-6.53
			c-0.87,0-1.68-0.38-2.43-1.14C1598.09,698.62,1597.72,697.79,1597.72,696.9z"/>
		<path class="st7" d="M1741.82,589.86c-2.74,0-5.1-1.01-7.09-3.05c-1.99-2.03-2.99-4.44-2.99-7.24c0-3.05,0.96-5.59,2.89-7.62
			c1.93-2.03,4.32-3.05,7.19-3.05c2.86,0,5.29,1.02,7.28,3.05c1.99,2.03,2.99,4.57,2.99,7.62c0,2.79-1,5.21-2.99,7.24
			C1747.1,588.84,1744.68,589.86,1741.82,589.86z M1735.28,696.33v-79.61c0-1.01,0.4-1.97,1.21-2.86c0.81-0.89,1.77-1.33,2.89-1.33
			h5.6c0.99,0,1.93,0.45,2.8,1.33c0.87,0.89,1.31,1.84,1.31,2.86v79.61c0,1.14-0.44,2.13-1.31,2.95c-0.87,0.83-1.8,1.24-2.8,1.24
			h-5.6c-1.12,0-2.09-0.41-2.89-1.24C1735.69,698.46,1735.28,697.47,1735.28,696.33z"/>
		<path class="st7" d="M1804.53,696.9V579.96h-32.48c-1,0-1.84-0.35-2.52-1.05c-0.69-0.7-1.03-1.55-1.03-2.57v-5.52
			c0-1.01,0.34-1.87,1.03-2.57c0.68-0.7,1.52-1.05,2.52-1.05h79.14c0.99,0,1.84,0.35,2.52,1.05c0.68,0.7,1.03,1.56,1.03,2.57v5.52
			c0,1.02-0.34,1.88-1.03,2.57c-0.68,0.7-1.53,1.05-2.52,1.05h-32.48V696.9c0,0.89-0.34,1.71-1.03,2.48
			c-0.68,0.76-1.53,1.14-2.52,1.14h-7.09c-1,0-1.84-0.38-2.52-1.14C1804.87,698.62,1804.53,697.79,1804.53,696.9z"/>
		<path class="st7" d="M1880.69,589.86c-2.74,0-5.1-1.01-7.09-3.05c-1.99-2.03-2.99-4.44-2.99-7.24c0-3.05,0.96-5.59,2.89-7.62
			c1.93-2.03,4.32-3.05,7.19-3.05c2.86,0,5.29,1.02,7.28,3.05c1.99,2.03,2.99,4.57,2.99,7.62c0,2.79-1,5.21-2.99,7.24
			C1885.97,588.84,1883.55,589.86,1880.69,589.86z M1874.15,696.33v-79.61c0-1.01,0.4-1.97,1.21-2.86c0.81-0.89,1.77-1.33,2.89-1.33
			h5.6c0.99,0,1.93,0.45,2.8,1.33c0.87,0.89,1.31,1.84,1.31,2.86v79.61c0,1.14-0.44,2.13-1.31,2.95c-0.87,0.83-1.8,1.24-2.8,1.24
			h-5.6c-1.12,0-2.09-0.41-2.89-1.24C1874.56,698.46,1874.15,697.47,1874.15,696.33z"/>
		<path class="st7" d="M1960.2,700.33l-56.37-128.18c-0.62-1.27-0.59-2.41,0.09-3.43c0.68-1.01,1.71-1.52,3.08-1.52h7.47
			c1.62,0,2.68,0.7,3.17,2.1l46.48,106.66h0.75l46.48-106.66c0.5-1.4,1.55-2.1,3.17-2.1h7.47c1.37,0,2.39,0.51,3.08,1.52
			c0.68,1.02,0.72,2.16,0.09,3.43l-56.74,128.18c-0.62,1.4-1.68,2.1-3.17,2.1h-1.87C1961.88,702.42,1960.82,701.73,1960.2,700.33z"
			/>
		<path class="st7" d="M2044.2,696.9V570.81c0-1.01,0.34-1.87,1.03-2.57c0.68-0.7,1.52-1.05,2.52-1.05h73.54
			c0.99,0,1.83,0.35,2.52,1.05c0.68,0.7,1.03,1.56,1.03,2.57v5.52c0,1.02-0.34,1.88-1.03,2.57c-0.69,0.7-1.53,1.05-2.52,1.05h-62.72
			v46.47h53.57c0.99,0,1.83,0.35,2.52,1.05c0.68,0.7,1.03,1.56,1.03,2.57v5.52c0,1.02-0.34,1.87-1.03,2.57
			c-0.68,0.7-1.53,1.05-2.52,1.05h-53.57v48.57h62.72c0.99,0,1.83,0.35,2.52,1.05c0.68,0.7,1.03,1.56,1.03,2.57v5.52
			c0,1.02-0.34,1.88-1.03,2.57c-0.69,0.7-1.53,1.05-2.52,1.05h-73.54c-1,0-1.84-0.35-2.52-1.05
			C2044.54,698.78,2044.2,697.92,2044.2,696.9z"/>
	</g>
</g>
</svg>
