<?xml version="1.0" encoding="utf-8"?>
<!-- Generator: Adobe Illustrator 24.3.0, SVG Export Plug-In . SVG Version: 6.00 Build 0)  -->
<svg version="1.1" id="Layer_1" xmlns="http://www.w3.org/2000/svg" xmlns:xlink="http://www.w3.org/1999/xlink" x="0px" y="0px"
	 viewBox="0 0 1024 1024" style="enable-background:new 0 0 1024 1024;" xml:space="preserve">
<style type="text/css">
	.st0{fill:none;}
	.st1{fill:url(#SVGID_1_);}
	.st2{fill:url(#SVGID_2_);}
	.st3{fill:url(#SVGID_3_);}
	.st4{fill:url(#SVGID_4_);}
	.st5{fill:#3199D7;}
</style>
<path class="st0" d="M117.68,474.36c-1.11-1.96-2.7-3.47-4.42-4.61C114.77,470.89,116.25,472.4,117.68,474.36z"/>
<linearGradient id="SVGID_1_" gradientUnits="userSpaceOnUse" x1="117.4379" y1="474.3564" x2="117.9262" y2="474.3564">
	<stop  offset="0" style="stop-color:#FFFFFF"/>
	<stop  offset="1" style="stop-color:#000000"/>
</linearGradient>
<polygon class="st1" points="117.68,474.36 117.68,474.36 117.68,474.36 "/>
<linearGradient id="SVGID_2_" gradientUnits="userSpaceOnUse" x1="117.4379" y1="474.3564" x2="117.9262" y2="474.3564">
	<stop  offset="0" style="stop-color:#FFFFFF"/>
	<stop  offset="1" style="stop-color:#000000"/>
</linearGradient>
<polygon class="st2" points="117.68,474.36 117.68,474.36 117.68,474.36 "/>
<g>
	<g>
		<linearGradient id="SVGID_3_" gradientUnits="userSpaceOnUse" x1="889.7103" y1="367.7616" x2="1007.9017" y2="367.7616">
			<stop  offset="0" style="stop-color:#7D77B6"/>
			<stop  offset="0.7989" style="stop-color:#10A8E8"/>
		</linearGradient>
		<path class="st3" d="M889.71,385.9c0,0-0.68-43.49,36.2-59.5c15.34-6.66,32.91-6.35,48.2,0.41c12.03,5.32,25.51,15.18,31.34,33.39
			c2.69,8.4,3.04,17.36,1.65,26.07c-1.36,8.52-4.4,19.95-11.21,27.67c0,0-16.54-13.92-37.93-12.51c0,0,17.96-9.08,16.34-24.41
			c-1.43-13.62-8.48-20.87-20.55-23.17c-4.37-0.83-8.95-0.59-13.02,1.21c-13.12,5.79-22.76,23.88-20.91,34.48L889.71,385.9z"/>
		<linearGradient id="SVGID_4_" gradientUnits="userSpaceOnUse" x1="700.4684" y1="466.4336" x2="1015.5258" y2="466.4336">
			<stop  offset="0.2011" style="stop-color:#7D77B6"/>
			<stop  offset="0.7989" style="stop-color:#10A8E8"/>
		</linearGradient>
		<path class="st4" d="M957.66,405.27c-36.02,2.12-59.02,34.8-59.02,34.8l22.9,20.18c3.35-4.67,7.09-8.36,10.87-11.29l-0.02,0
			c0,0,9.86-9.16,22.18-10.12c0.61-0.03,1.53-0.06,2.58-0.05c0,0,0.01,0,0.01,0c0.62,0.01,1.28,0.04,1.95,0.09
			c0.3,0.03,0.6,0.05,0.9,0.09c0.01,0,0.02,0,0.03,0c0.56,0.08,1.12,0.17,1.68,0.29c0,0,0,0,0,0c3.39,0.72,6.85,2.22,10.26,4.81
			c2.97,1.97,5.73,4.58,7.65,7.98l0,0c1.71,3.04,2.75,6.7,2.64,11.12c-0.5,19.07-18.06,24.82-22.29,25.02
			c-4.24,0.2-14.68-1.87-21.59-7.87c-14.33-8.88-60.33-49.63-60.33-49.63c-55.99-49.63-95.03-46.31-95.03-46.31
			c-35.97,2.07-56.57,18.44-68.33,35.67c-18.22,26.68-18.94,61.92-2.2,89.55c10.64,17.57,29.23,33.61,60.99,38.14
			c6.43,0.92,12.96,1,19.43,0.37c64.09-6.25,100.58-55.08,100.58-55.08l-23.91-20.28c-28.86,28.46-56.54,37.55-72.11,40.44
			c-7.88,1.46-15.98,1.33-23.83-0.31c-38.72-8.08-40.33-35.53-41.31-45.42c-1.21-13.01,7.57-48.57,51.9-49.48
			c40.25,0.3,83.83,43.28,83.83,43.28s46.51,42.07,61.64,52.76c2.51,1.77,4.94,3.17,7.26,4.31c4.48,2.07,12.46,4.76,22.71,4.12
			c31.38-3.42,45.47-23.2,51.74-38.82c6.04-15.05,5.5-32.1-2.27-46.33C1000.48,421.43,983.77,406.6,957.66,405.27z"/>
	</g>
	<g>
		<path class="st5" d="M27.98,682.52c-13-13.27-19.51-29.43-19.51-48.47c0-19.05,6.5-35.27,19.51-48.67
			c13-13.39,28.84-20.09,47.5-20.09c18.67,0,34.53,6.7,47.6,20.09c13.07,13.4,19.6,29.62,19.6,48.67c0,19.05-6.53,35.21-19.6,48.47
			c-13.07,13.27-28.93,19.9-47.6,19.9C56.82,702.42,40.98,695.79,27.98,682.52z M37.41,595c-10.58,10.92-15.87,23.94-15.87,39.05
			c0,15.11,5.29,28.06,15.87,38.85c10.58,10.8,23.27,16.19,38.08,16.19c14.81,0,27.53-5.4,38.17-16.19
			c10.64-10.79,15.96-23.74,15.96-38.85c0-15.11-5.32-28.12-15.96-39.05c-10.64-10.92-23.36-16.38-38.17-16.38
			C60.67,578.62,47.98,584.08,37.41,595z"/>
		<path class="st5" d="M161.16,695.95l24.08-127.99c0.37-1.78,1.49-2.67,3.36-2.67h2.99c1.62,0,2.67,0.7,3.17,2.1l36.96,104.95h0.93
			l36.4-104.95c0.5-1.4,1.55-2.1,3.17-2.1h2.99c1.87,0,2.99,0.89,3.36,2.67l24.08,127.99c0.62,3.05-0.5,4.57-3.36,4.57h-7.47
			c-1.74,0-2.86-0.89-3.36-2.67l-16.61-98.09h-0.75l-34.34,100.57c-0.5,1.4-1.56,2.1-3.17,2.1h-3.36c-1.62,0-2.68-0.7-3.17-2.1
			l-34.72-100.57h-0.75l-16.24,98.09c-0.13,0.64-0.53,1.24-1.21,1.81c-0.68,0.57-1.4,0.86-2.15,0.86h-7.47
			C161.66,700.52,160.54,699,161.16,695.95z"/>
		<path class="st5" d="M330.27,696.9V570.81c0-1.01,0.34-1.87,1.03-2.57c0.68-0.7,1.52-1.05,2.52-1.05h73.54
			c0.99,0,1.83,0.35,2.52,1.05c0.68,0.7,1.03,1.56,1.03,2.57v5.52c0,1.02-0.34,1.88-1.03,2.57c-0.69,0.7-1.53,1.05-2.52,1.05h-62.72
			v52.19h53.57c0.99,0,1.83,0.35,2.52,1.05c0.68,0.7,1.03,1.56,1.03,2.57v5.52c0,0.89-0.34,1.71-1.03,2.48
			c-0.69,0.76-1.53,1.14-2.52,1.14h-53.57v52c0,0.89-0.34,1.71-1.03,2.48c-0.69,0.76-1.53,1.14-2.52,1.14h-7.28
			c-1,0-1.84-0.35-2.52-1.05C330.61,698.78,330.27,697.92,330.27,696.9z"/>
		<path class="st5" d="M437.6,589.86c-2.74,0-5.1-1.01-7.09-3.05c-1.99-2.03-2.99-4.44-2.99-7.24c0-3.05,0.96-5.59,2.89-7.62
			c1.93-2.03,4.32-3.05,7.19-3.05c2.86,0,5.29,1.02,7.28,3.05c1.99,2.03,2.99,4.57,2.99,7.62c0,2.79-1,5.21-2.99,7.24
			C442.89,588.84,440.46,589.86,437.6,589.86z M431.06,696.33v-79.61c0-1.01,0.4-1.97,1.21-2.86c0.81-0.89,1.77-1.33,2.89-1.33h5.6
			c1,0,1.93,0.45,2.8,1.33c0.87,0.89,1.31,1.84,1.31,2.86v79.61c0,1.14-0.44,2.13-1.31,2.95c-0.87,0.83-1.8,1.24-2.8,1.24h-5.6
			c-1.12,0-2.09-0.41-2.89-1.24C431.47,698.46,431.06,697.47,431.06,696.33z"/>
		<path class="st5" d="M476.05,696.9V568.72c0-0.89,0.34-1.68,1.03-2.38c0.68-0.7,1.52-1.05,2.52-1.05h2.8
			c1.37,0,2.36,0.51,2.99,1.52l83.06,105.52h0.38V570.81c0-1.01,0.34-1.87,1.02-2.57c0.68-0.7,1.52-1.05,2.52-1.05h6.53
			c0.87,0,1.68,0.38,2.43,1.14c0.75,0.76,1.12,1.59,1.12,2.48V699c0,0.89-0.35,1.68-1.02,2.38c-0.69,0.7-1.53,1.05-2.52,1.05h-1.5
			c-1.37,0-2.36-0.51-2.99-1.52l-84.56-107.61h-0.19V696.9c0,1.02-0.34,1.88-1.03,2.57c-0.68,0.7-1.53,1.05-2.52,1.05h-6.53
			c-0.87,0-1.68-0.38-2.43-1.14C476.42,698.62,476.05,697.79,476.05,696.9z"/>
		<path class="st5" d="M620.15,589.86c-2.74,0-5.1-1.01-7.09-3.05c-1.99-2.03-2.99-4.44-2.99-7.24c0-3.05,0.96-5.59,2.89-7.62
			c1.93-2.03,4.32-3.05,7.19-3.05c2.86,0,5.29,1.02,7.28,3.05c1.99,2.03,2.99,4.57,2.99,7.62c0,2.79-1,5.21-2.99,7.24
			C625.44,588.84,623.01,589.86,620.15,589.86z M613.62,696.33v-79.61c0-1.01,0.4-1.97,1.21-2.86c0.81-0.89,1.77-1.33,2.89-1.33h5.6
			c0.99,0,1.93,0.45,2.8,1.33c0.87,0.89,1.31,1.84,1.31,2.86v79.61c0,1.14-0.44,2.13-1.31,2.95c-0.87,0.83-1.8,1.24-2.8,1.24h-5.6
			c-1.12,0-2.09-0.41-2.89-1.24C614.02,698.46,613.62,697.47,613.62,696.33z"/>
		<path class="st5" d="M682.86,696.9V579.96h-32.48c-1,0-1.84-0.35-2.52-1.05c-0.69-0.7-1.03-1.55-1.03-2.57v-5.52
			c0-1.01,0.34-1.87,1.03-2.57c0.68-0.7,1.52-1.05,2.52-1.05h79.14c0.99,0,1.83,0.35,2.52,1.05c0.68,0.7,1.03,1.56,1.03,2.57v5.52
			c0,1.02-0.34,1.88-1.03,2.57c-0.68,0.7-1.53,1.05-2.52,1.05h-32.48V696.9c0,0.89-0.34,1.71-1.03,2.48
			c-0.68,0.76-1.53,1.14-2.52,1.14h-7.09c-1,0-1.84-0.38-2.52-1.14C683.21,698.62,682.86,697.79,682.86,696.9z"/>
		<path class="st5" d="M759.02,589.86c-2.74,0-5.1-1.01-7.09-3.05c-1.99-2.03-2.99-4.44-2.99-7.24c0-3.05,0.96-5.59,2.89-7.62
			c1.93-2.03,4.32-3.05,7.19-3.05c2.86,0,5.29,1.02,7.28,3.05c1.99,2.03,2.99,4.57,2.99,7.62c0,2.79-1,5.21-2.99,7.24
			C764.31,588.84,761.88,589.86,759.02,589.86z M752.49,696.33v-79.61c0-1.01,0.4-1.97,1.21-2.86c0.81-0.89,1.77-1.33,2.89-1.33h5.6
			c0.99,0,1.93,0.45,2.8,1.33c0.87,0.89,1.31,1.84,1.31,2.86v79.61c0,1.14-0.44,2.13-1.31,2.95c-0.87,0.83-1.8,1.24-2.8,1.24h-5.6
			c-1.12,0-2.09-0.41-2.89-1.24C752.89,698.46,752.49,697.47,752.49,696.33z"/>
		<path class="st5" d="M838.53,700.33l-56.37-128.18c-0.62-1.27-0.59-2.41,0.09-3.43c0.68-1.01,1.71-1.52,3.08-1.52h7.47
			c1.62,0,2.68,0.7,3.17,2.1l46.48,106.66h0.75l46.48-106.66c0.5-1.4,1.55-2.1,3.17-2.1h7.47c1.37,0,2.39,0.51,3.08,1.52
			c0.68,1.02,0.72,2.16,0.09,3.43l-56.74,128.18c-0.62,1.4-1.68,2.1-3.17,2.1h-1.87C840.21,702.42,839.16,701.73,838.53,700.33z"/>
		<path class="st5" d="M922.53,696.9V570.81c0-1.01,0.34-1.87,1.03-2.57c0.68-0.7,1.52-1.05,2.52-1.05h73.54
			c0.99,0,1.83,0.35,2.52,1.05c0.68,0.7,1.03,1.56,1.03,2.57v5.52c0,1.02-0.35,1.88-1.03,2.57c-0.68,0.7-1.53,1.05-2.52,1.05H936.9
			v46.47h53.57c0.99,0,1.84,0.35,2.52,1.05c0.68,0.7,1.03,1.56,1.03,2.57v5.52c0,1.02-0.34,1.87-1.03,2.57
			c-0.68,0.7-1.53,1.05-2.52,1.05H936.9v48.57h62.72c0.99,0,1.83,0.35,2.52,1.05c0.68,0.7,1.03,1.56,1.03,2.57v5.52
			c0,1.02-0.35,1.88-1.03,2.57c-0.68,0.7-1.53,1.05-2.52,1.05h-73.54c-1,0-1.84-0.35-2.52-1.05
			C922.87,698.78,922.53,697.92,922.53,696.9z"/>
	</g>
</g>
</svg>
